<?xml version="1.0" encoding="iso-8859-1"?>
<!-- Generator: Adobe Illustrator 19.0.0, SVG Export Plug-In . SVG Version: 6.00 Build 0)  -->
<svg version="1.1" id="Capa_1" xmlns="http://www.w3.org/2000/svg" xmlns:xlink="http://www.w3.org/1999/xlink" x="0px" y="0px"
	 viewBox="0 0 512 512" style="enable-background:new 0 0 512 512;" xml:space="preserve">
<g>
	<g>
		<path d="M302.07,414.93c-1.86-1.86-4.44-2.93-7.07-2.93s-5.21,1.07-7.07,2.93c-1.86,1.86-2.93,4.44-2.93,7.07s1.07,5.21,2.93,7.07
			c1.86,1.86,4.44,2.93,7.07,2.93s5.21-1.07,7.07-2.93c1.86-1.86,2.93-4.44,2.93-7.07S303.93,416.79,302.07,414.93z"/>
	</g>
</g>
<g>
	<g>
		<path d="M198.49,344.93c-1.86-1.86-4.44-2.93-7.07-2.93c-2.64,0-5.22,1.07-7.07,2.93c-1.87,1.86-2.93,4.44-2.93,7.07
			s1.06,5.21,2.93,7.07c1.86,1.86,4.43,2.93,7.07,2.93c2.63,0,5.21-1.07,7.07-2.93c1.86-1.86,2.93-4.44,2.93-7.07
			S200.35,346.79,198.49,344.93z"/>
	</g>
</g>
<g>
	<g>
		<path d="M480,448c-10.844,0-19.667,8.822-19.667,19.667c0,5.523,4.477,10,10,10c5.41,0,9.816-4.295,9.995-9.662
			C486.794,468.178,492,473.493,492,480c0,6.617-5.383,12-12,12h-6.319c-7.441,0-14.436-2.897-19.697-8.159l-26.813-26.813
			c18.173-11.503,32.444-29.007,39.734-50.353l32.151-94.142C506.983,305.564,512,295.36,512,284c0-20.953-17.047-38-38-38H261.982
			c2.435-1.824,4.018-4.723,4.018-8v-5c0-5.523-4.477-10-10-10s-10,4.477-10,10v5c0,3.277,1.583,6.176,4.018,8H42V55
			c0-19.299,15.701-35,35-35h134c16.22,0,29.895,11.093,33.846,26.089C214.326,47.733,190,73.077,190,104c0,5.523,4.477,10,10,10
			h112c5.523,0,10-4.477,10-10c0-31.56-25.342-57.295-56.743-57.968C260.961,19.957,238.273,0,211,0H77C46.673,0,22,24.673,22,55
			v194.545C9.021,255.596,0,268.761,0,284c0,11.36,5.017,21.564,12.945,28.534l32.151,94.142
			c7.29,21.345,21.561,38.85,39.734,50.353l-26.813,26.813C52.755,489.103,45.76,492,38.319,492H32c-6.617,0-12-5.383-12-12
			c0-6.507,5.206-11.822,11.672-11.996c0.178,5.367,4.584,9.662,9.995,9.662c5.523,0,10-4.477,10-10
			C51.667,456.822,42.844,448,32,448c-17.645,0-32,14.355-32,32c0,17.645,14.355,32,32,32h6.319c12.783,0,24.801-4.978,33.84-14.017
			l31.664-31.664c10.266,3.687,21.263,5.681,32.611,5.681h239.132c11.348,0,22.345-1.994,32.611-5.681l31.664,31.664
			c9.039,9.039,21.057,14.017,33.84,14.017H480c17.645,0,32-14.355,32-32C512,462.355,497.645,448,480,448z M264,66
			c17.494,0,32.265,11.882,36.665,28h-89.33c4.4-16.118,19.171-28,36.665-28H264z M20,284c0-9.925,8.075-18,18-18h436
			c9.925,0,18,8.075,18,18s-8.075,18-18,18H38C28.075,302,20,293.925,20,284z M375.565,452H136.434
			c-32.733,0-61.833-20.812-72.412-51.789L50.972,362h100.603c5.523,0,10-4.477,10-10s-4.477-10-10-10H44.142l-6.836-20.018
			C37.538,321.987,37.767,322,38,322h436c0.233,0,0.462-0.013,0.694-0.018l-26.716,78.229c-1.407,4.12-3.151,8.053-5.178,11.789
			H334.841c-5.523,0-10,4.477-10,10s4.477,10,10,10h92.303C413.359,444.575,395.112,452,375.565,452z"/>
	</g>
</g>
<g>
	<g>
		<path d="M308.795,199.49l-0.999-4.899c-1.104-5.411-6.384-8.903-11.796-7.8c-5.412,1.104-8.904,6.385-7.8,11.796l0.999,4.899
			c0.966,4.737,5.134,8.004,9.788,8.004c0.662,0,1.334-0.066,2.008-0.204C306.407,210.182,309.899,204.901,308.795,199.49z"/>
	</g>
</g>
<g>
	<g>
		<path d="M301.804,165.197l-0.999-4.899c-1.103-5.412-6.384-8.908-11.795-7.801c-5.412,1.103-8.904,6.384-7.801,11.795l0.999,4.899
			c0.965,4.738,5.133,8.005,9.788,8.005c0.662,0,1.334-0.066,2.007-0.204C299.415,175.889,302.907,170.608,301.804,165.197z"/>
	</g>
</g>
<g>
	<g>
		<path d="M294.813,130.902l-0.999-4.899c-1.103-5.411-6.38-8.9-11.796-7.8c-5.412,1.104-8.904,6.385-7.8,11.796l0.999,4.899
			c0.966,4.738,5.133,8.004,9.788,8.004c0.661-0.001,1.334-0.067,2.008-0.204C292.425,141.594,295.917,136.313,294.813,130.902z"/>
	</g>
</g>
<g>
	<g>
		<path d="M315.787,233.785l-0.999-4.899c-1.103-5.411-6.379-8.9-11.796-7.8c-5.412,1.104-8.904,6.385-7.8,11.796l0.999,4.899
			c0.966,4.738,5.133,8.004,9.788,8.004c0.662,0,1.334-0.066,2.008-0.204C313.399,244.477,316.891,239.196,315.787,233.785z"/>
	</g>
</g>
<g>
	<g>
		<path d="M256,188c-5.523,0-10,4.477-10,10v5c0,5.523,4.477,10,10,10s10-4.477,10-10v-5C266,192.477,261.523,188,256,188z"/>
	</g>
</g>
<g>
	<g>
		<path d="M256,118c-5.523,0-10,4.477-10,10v5c0,5.523,4.477,10,10,10s10-4.477,10-10v-5C266,122.477,261.523,118,256,118z"/>
	</g>
</g>
<g>
	<g>
		<path d="M256,153c-5.523,0-10,4.477-10,10v5c0,5.523,4.477,10,10,10s10-4.477,10-10v-5C266,157.477,261.523,153,256,153z"/>
	</g>
</g>
<g>
	<g>
		<path d="M229.983,118.202c-5.415-1.106-10.693,2.389-11.796,7.8l-0.999,4.899c-1.104,5.412,2.389,10.693,7.8,11.796
			c0.674,0.138,1.346,0.204,2.008,0.204c4.654,0,8.822-3.266,9.788-8.004l0.999-4.899
			C238.887,124.586,235.394,119.305,229.983,118.202z"/>
	</g>
</g>
<g>
	<g>
		<path d="M222.99,152.497c-5.416-1.107-10.693,2.391-11.795,7.801l-0.999,4.899c-1.103,5.412,2.39,10.693,7.801,11.795
			c0.674,0.138,1.346,0.204,2.007,0.204c4.655,0,8.823-3.267,9.788-8.005l0.999-4.899
			C231.894,158.88,228.401,153.599,222.99,152.497z"/>
	</g>
</g>
<g>
	<g>
		<path d="M209.007,221.086c-5.411-1.105-10.693,2.389-11.796,7.8l-0.999,4.899c-1.104,5.412,2.389,10.693,7.8,11.796
			c0.674,0.138,1.346,0.204,2.008,0.204c4.654,0,8.822-3.267,9.788-8.004l0.999-4.899
			C217.911,227.47,214.418,222.189,209.007,221.086z"/>
	</g>
</g>
<g>
	<g>
		<path d="M216,186.791c-5.41-1.102-10.693,2.389-11.796,7.8l-0.999,4.899c-1.104,5.411,2.389,10.693,7.8,11.796
			c0.674,0.138,1.346,0.204,2.008,0.204c4.654,0,8.822-3.266,9.788-8.004l0.999-4.899C224.904,193.175,221.411,187.894,216,186.791z
			"/>
	</g>
</g>
<g>
</g>
<g>
</g>
<g>
</g>
<g>
</g>
<g>
</g>
<g>
</g>
<g>
</g>
<g>
</g>
<g>
</g>
<g>
</g>
<g>
</g>
<g>
</g>
<g>
</g>
<g>
</g>
<g>
</g>
</svg>
