<?xml version="1.0" encoding="iso-8859-1"?>
<!-- Generator: Adobe Illustrator 19.0.0, SVG Export Plug-In . SVG Version: 6.00 Build 0)  -->
<svg version="1.1" id="Capa_1" xmlns="http://www.w3.org/2000/svg" xmlns:xlink="http://www.w3.org/1999/xlink" x="0px" y="0px"
	 viewBox="0 0 512 512" style="enable-background:new 0 0 512 512;" xml:space="preserve">
<g>
	<g>
		<path d="M421.161,96.344H90.839c-20.067,0-35.785,15.718-35.785,35.785v137.634c0,4.558,3.694,8.258,8.258,8.258h385.376
			c4.558,0,8.258-3.7,8.258-8.258V132.129C456.946,112.062,441.228,96.344,421.161,96.344z M440.43,261.505H71.57V132.129
			c0-10.802,8.467-19.269,19.269-19.269h330.323c10.807,0,19.269,8.467,19.269,19.269V261.505z"/>
	</g>
</g>
<g>
	<g>
		<path d="M118.916,151.398h-0.551c-4.564,0-8.258,3.694-8.258,8.258c0,4.564,3.694,8.258,8.258,8.258h0.551
			c4.564,0,8.258-3.694,8.258-8.258C127.174,155.092,123.48,151.398,118.916,151.398z"/>
	</g>
</g>
<g>
	<g>
		<path d="M118.916,206.452h-0.551c-4.564,0-8.258,3.694-8.258,8.258c0,4.564,3.694,8.258,8.258,8.258h0.551
			c4.564,0,8.258-3.694,8.258-8.258C127.174,210.146,123.48,206.452,118.916,206.452z"/>
	</g>
</g>
<g>
	<g>
		<path d="M173.97,178.925h-0.551c-4.564,0-8.258,3.694-8.258,8.258s3.694,8.258,8.258,8.258h0.551c4.564,0,8.258-3.694,8.258-8.258
			S178.534,178.925,173.97,178.925z"/>
	</g>
</g>
<g>
	<g>
		<path d="M229.024,151.398h-0.55c-4.564,0-8.258,3.694-8.258,8.258c0,4.564,3.694,8.258,8.258,8.258h0.55
			c4.564,0,8.258-3.694,8.258-8.258C237.282,155.092,233.588,151.398,229.024,151.398z"/>
	</g>
</g>
<g>
	<g>
		<path d="M229.024,206.452h-0.55c-4.564,0-8.258,3.694-8.258,8.258c0,4.564,3.694,8.258,8.258,8.258h0.55
			c4.564,0,8.258-3.694,8.258-8.258C237.282,210.146,233.588,206.452,229.024,206.452z"/>
	</g>
</g>
<g>
	<g>
		<path d="M284.077,178.925h-0.551c-4.558,0-7.983,3.694-7.983,8.258s3.975,8.258,8.533,8.258c4.558,0,8.258-3.694,8.258-8.258
			S288.636,178.925,284.077,178.925z"/>
	</g>
</g>
<g>
	<g>
		<path d="M339.131,151.398h-0.551c-4.558,0-7.983,3.694-7.983,8.258c0,4.564,3.975,8.258,8.533,8.258
			c4.558,0,8.258-3.694,8.258-8.258C347.389,155.092,343.69,151.398,339.131,151.398z"/>
	</g>
</g>
<g>
	<g>
		<path d="M339.131,206.452h-0.551c-4.558,0-7.983,3.694-7.983,8.258c0,4.564,3.975,8.258,8.533,8.258
			c4.558,0,8.258-3.694,8.258-8.258C347.389,210.146,343.69,206.452,339.131,206.452z"/>
	</g>
</g>
<g>
	<g>
		<path d="M394.185,178.925h-0.551c-4.558,0-7.983,3.694-7.983,8.258s3.975,8.258,8.533,8.258s8.258-3.694,8.258-8.258
			S398.743,178.925,394.185,178.925z"/>
	</g>
</g>
<g>
	<g>
		<path d="M394.185,123.871h-0.551c-4.558,0-7.983,3.694-7.983,8.258s3.975,8.258,8.533,8.258s8.258-3.694,8.258-8.258
			S398.743,123.871,394.185,123.871z"/>
	</g>
</g>
<g>
	<g>
		<path d="M284.077,123.871h-0.551c-4.558,0-7.983,3.694-7.983,8.258s3.975,8.258,8.533,8.258c4.558,0,8.258-3.694,8.258-8.258
			S288.636,123.871,284.077,123.871z"/>
	</g>
</g>
<g>
	<g>
		<path d="M173.97,123.871h-0.551c-4.564,0-8.258,3.694-8.258,8.258s3.694,8.258,8.258,8.258h0.551c4.564,0,8.258-3.694,8.258-8.258
			S178.534,123.871,173.97,123.871z"/>
	</g>
</g>
<g>
	<g>
		<path d="M476.215,261.505H35.785c-4.564,0-8.258,3.7-8.258,8.258v27.527c0,4.558,3.694,8.258,8.258,8.258h440.43
			c4.558,0,8.258-3.7,8.258-8.258v-27.527C484.473,265.205,480.773,261.505,476.215,261.505z M467.957,289.032H44.043v-11.011
			h423.914V289.032z"/>
	</g>
</g>
<g>
	<g>
		<path d="M200.946,233.979h-55.054c-20.067,0-35.785,15.718-35.785,35.785c0,4.558,3.694,8.258,8.258,8.258h110.108
			c4.564,0,8.258-3.7,8.258-8.258C236.731,249.696,221.013,233.979,200.946,233.979z M128.418,261.505
			c3.039-6.562,9.64-11.011,17.48-11.011h55.054c7.834,0,14.435,4.448,17.474,11.011H128.418z"/>
	</g>
</g>
<g>
	<g>
		<path d="M366.107,233.979h-55.054c-17.215,0-31.232,11.572-34.866,27.527h-75.242c-4.564,0-8.258,3.7-8.258,8.258
			c0,4.558,3.694,8.258,8.258,8.258h82.581c4.558,0,8.258-3.7,8.258-8.258c0-10.807,8.462-19.269,19.269-19.269h55.054
			c7.834,0,14.435,4.448,17.474,11.011h-72.528c-4.558,0-8.258,3.7-8.258,8.258c0,4.558,3.7,8.258,8.258,8.258h82.581
			c4.558,0,8.258-3.7,8.258-8.258C401.892,249.696,386.175,233.979,366.107,233.979z"/>
	</g>
</g>
<g>
	<g>
		<path d="M503.742,289.032H8.258c-4.564,0-8.258,3.7-8.258,8.258v82.581c0,4.558,3.694,8.258,8.258,8.258h495.484
			c4.558,0,8.258-3.7,8.258-8.258V297.29C512,292.732,508.3,289.032,503.742,289.032z M495.484,371.613H16.516v-66.065h478.968
			V371.613z"/>
	</g>
</g>
<g>
	<g>
		<path d="M63.312,371.613c-4.564,0-8.258,3.7-8.258,8.258v27.527c0,4.558,3.694,8.258,8.258,8.258s8.258-3.7,8.258-8.258v-27.527
			C71.57,375.313,67.876,371.613,63.312,371.613z"/>
	</g>
</g>
<g>
	<g>
		<path d="M448.688,371.613c-4.558,0-8.258,3.7-8.258,8.258v27.527c0,4.558,3.7,8.258,8.258,8.258s8.258-3.7,8.258-8.258v-27.527
			C456.946,375.313,453.247,371.613,448.688,371.613z"/>
	</g>
</g>
<g>
	<g>
		<path d="M476.215,399.14h-55.054c-4.558,0-8.258,3.7-8.258,8.258s3.7,8.258,8.258,8.258h55.054c4.558,0,8.258-3.7,8.258-8.258
			S480.773,399.14,476.215,399.14z"/>
	</g>
</g>
<g>
	<g>
		<path d="M90.839,399.14H35.785c-4.564,0-8.258,3.7-8.258,8.258s3.694,8.258,8.258,8.258h55.054c4.564,0,8.258-3.7,8.258-8.258
			S95.403,399.14,90.839,399.14z"/>
	</g>
</g>
<g>
</g>
<g>
</g>
<g>
</g>
<g>
</g>
<g>
</g>
<g>
</g>
<g>
</g>
<g>
</g>
<g>
</g>
<g>
</g>
<g>
</g>
<g>
</g>
<g>
</g>
<g>
</g>
<g>
</g>
</svg>
