<?xml version="1.0" encoding="iso-8859-1"?>
<!-- Generator: Adobe Illustrator 19.0.0, SVG Export Plug-In . SVG Version: 6.00 Build 0)  -->
<svg version="1.1" id="Layer_1" xmlns="http://www.w3.org/2000/svg" xmlns:xlink="http://www.w3.org/1999/xlink" x="0px" y="0px"
	 viewBox="0 0 512 512" style="enable-background:new 0 0 512 512;" xml:space="preserve">
<path style="fill:#EDECEB;" d="M470.033,54.557H41.967C18.826,54.557,0,73.384,0,96.525v373.508C0,493.173,18.826,512,41.967,512
	h428.066C493.173,512,512,493.173,512,470.033V96.525C512,73.384,493.173,54.557,470.033,54.557z"/>
<path style="fill:#FFD042;" d="M512,96.525c0-23.141-18.826-41.967-41.967-41.967H41.967C18.826,54.557,0,73.384,0,96.525v58.754
	h512V96.525z"/>
<path style="fill:#DBD9D7;" d="M41.967,470.033V96.525c0-23.141,18.826-41.967,41.967-41.967H41.967
	C18.826,54.557,0,73.384,0,96.525v373.508C0,493.173,18.826,512,41.967,512h41.967C60.794,512,41.967,493.173,41.967,470.033z"/>
<path style="fill:#FFC412;" d="M83.934,54.557H41.967C18.826,54.557,0,73.384,0,96.525v58.754h41.967V96.525
	C41.967,73.384,60.794,54.557,83.934,54.557z"/>
<path style="fill:#FF9940;" d="M264.393,0h-16.787c-13.884,0-25.18,11.297-25.18,25.18v79.738c0,13.884,11.297,25.18,25.18,25.18
	h16.787c13.884,0,25.18-11.297,25.18-25.18V25.18C289.574,11.297,278.277,0,264.393,0z"/>
<path style="fill:#F5760F;" d="M239.213,104.918V25.18c0-13.884,11.297-25.18,25.18-25.18h-16.787
	c-13.884,0-25.18,11.297-25.18,25.18v79.738c0,13.884,11.297,25.18,25.18,25.18h16.787
	C250.51,130.098,239.213,118.802,239.213,104.918z"/>
<path style="fill:#FF9940;" d="M398.689,0h-16.787c-13.884,0-25.18,11.297-25.18,25.18v79.738c0,13.884,11.297,25.18,25.18,25.18
	h16.787c13.884,0,25.18-11.297,25.18-25.18V25.18C423.869,11.297,412.572,0,398.689,0z"/>
<path style="fill:#F5760F;" d="M373.508,104.918V25.18c0-13.884,11.297-25.18,25.18-25.18h-16.787
	c-13.884,0-25.18,11.297-25.18,25.18v79.738c0,13.884,11.297,25.18,25.18,25.18h16.787
	C384.805,130.098,373.508,118.802,373.508,104.918z"/>
<path style="fill:#FF9940;" d="M130.098,0h-16.787c-13.884,0-25.18,11.297-25.18,25.18v79.738c0,13.884,11.297,25.18,25.18,25.18
	h16.787c13.884,0,25.18-11.297,25.18-25.18V25.18C155.279,11.297,143.982,0,130.098,0z"/>
<path style="fill:#F5760F;" d="M104.918,104.918V25.18c0-13.884,11.297-25.18,25.18-25.18h-16.787
	c-13.884,0-25.18,11.297-25.18,25.18v79.738c0,13.884,11.297,25.18,25.18,25.18h16.787
	C116.215,130.098,104.918,118.802,104.918,104.918z"/>
<g>
	<path style="fill:#C9C6C2;" d="M138.492,188.852H88.131c-9.256,0-16.787,7.531-16.787,16.787V256
		c0,9.256,7.531,16.787,16.787,16.787h50.361c9.256,0,16.787-7.531,16.787-16.787v-50.361
		C155.279,196.383,147.748,188.852,138.492,188.852z"/>
	<path style="fill:#C9C6C2;" d="M423.869,188.852h-50.361c-9.256,0-16.787,7.531-16.787,16.787V256
		c0,9.256,7.531,16.787,16.787,16.787h50.361c9.256,0,16.787-7.531,16.787-16.787v-50.361
		C440.656,196.383,433.125,188.852,423.869,188.852z"/>
	<path style="fill:#C9C6C2;" d="M281.18,188.852H230.82c-9.256,0-16.787,7.531-16.787,16.787V256
		c0,9.256,7.531,16.787,16.787,16.787h50.361c9.256,0,16.787-7.531,16.787-16.787v-50.361
		C297.967,196.383,290.436,188.852,281.18,188.852z"/>
	<path style="fill:#C9C6C2;" d="M138.492,289.574H88.131c-9.256,0-16.787,7.531-16.787,16.787v50.361
		c0,9.256,7.531,16.787,16.787,16.787h50.361c9.256,0,16.787-7.531,16.787-16.787v-50.361
		C155.279,297.105,147.748,289.574,138.492,289.574z"/>
	<path style="fill:#C9C6C2;" d="M423.869,289.574h-50.361c-9.256,0-16.787,7.531-16.787,16.787v50.361
		c0,9.256,7.531,16.787,16.787,16.787h50.361c9.256,0,16.787-7.531,16.787-16.787v-50.361
		C440.656,297.105,433.125,289.574,423.869,289.574z"/>
	<path style="fill:#C9C6C2;" d="M281.18,289.574H230.82c-9.256,0-16.787,7.531-16.787,16.787v50.361
		c0,9.256,7.531,16.787,16.787,16.787h50.361c9.256,0,16.787-7.531,16.787-16.787v-50.361
		C297.967,297.105,290.436,289.574,281.18,289.574z"/>
	<path style="fill:#C9C6C2;" d="M138.492,390.295H88.131c-9.256,0-16.787,7.531-16.787,16.787v50.361
		c0,9.256,7.531,16.787,16.787,16.787h50.361c9.256,0,16.787-7.531,16.787-16.787v-50.361
		C155.279,397.826,147.748,390.295,138.492,390.295z"/>
	<path style="fill:#C9C6C2;" d="M423.869,390.295h-50.361c-9.256,0-16.787,7.531-16.787,16.787v50.361
		c0,9.256,7.531,16.787,16.787,16.787h50.361c9.256,0,16.787-7.531,16.787-16.787v-50.361
		C440.656,397.826,433.125,390.295,423.869,390.295z"/>
	<path style="fill:#C9C6C2;" d="M281.18,390.295H230.82c-9.256,0-16.787,7.531-16.787,16.787v50.361
		c0,9.256,7.531,16.787,16.787,16.787h50.361c9.256,0,16.787-7.531,16.787-16.787v-50.361
		C297.967,397.826,290.436,390.295,281.18,390.295z"/>
</g>
<g>
	<path style="fill:#F5760F;" d="M402.892,352.525c-2.552,0-5.072-1.158-6.721-3.357l-12.59-16.787
		c-2.78-3.708-2.03-8.969,1.68-11.751c3.705-2.78,8.967-2.031,11.751,1.68l7.553,10.072l43.647-32.734
		c3.705-2.779,8.967-2.032,11.751,1.68c2.78,3.708,2.03,8.969-1.68,11.751l-50.361,37.771
		C406.411,351.978,404.645,352.525,402.892,352.525z"/>
	<path style="fill:#F5760F;" d="M260.203,352.525c-2.552,0-5.072-1.158-6.721-3.357l-12.59-16.787
		c-2.78-3.708-2.03-8.969,1.68-11.751c3.705-2.78,8.967-2.031,11.751,1.68l7.553,10.072l43.647-32.734
		c3.705-2.779,8.967-2.032,11.751,1.68c2.78,3.708,2.03,8.969-1.68,11.751l-50.361,37.771
		C263.723,351.978,261.956,352.525,260.203,352.525z"/>
</g>
<g>
</g>
<g>
</g>
<g>
</g>
<g>
</g>
<g>
</g>
<g>
</g>
<g>
</g>
<g>
</g>
<g>
</g>
<g>
</g>
<g>
</g>
<g>
</g>
<g>
</g>
<g>
</g>
<g>
</g>
</svg>
