<?xml version="1.0" encoding="iso-8859-1"?>
<!-- Generator: Adobe Illustrator 19.0.0, SVG Export Plug-In . SVG Version: 6.00 Build 0)  -->
<svg version="1.1" id="Capa_1" xmlns="http://www.w3.org/2000/svg" xmlns:xlink="http://www.w3.org/1999/xlink" x="0px" y="0px"
	 viewBox="0 0 512 512" style="enable-background:new 0 0 512 512;" xml:space="preserve">
<g>
	<polygon style="fill:#DE4C3C;" points="136.828,282.483 57.379,476.69 119.172,459.034 145.655,512 225.103,326.621 	"/>
	<polygon style="fill:#DE4C3C;" points="331.034,273.655 242.759,326.621 322.207,512 348.69,459.034 410.483,476.69 	"/>
</g>
<g>
	<polygon style="fill:#C74436;" points="136.828,282.483 107.608,353.898 109.109,354.339 128,412.954 188.204,400.066 
		192.088,403.597 225.103,326.621 	"/>
	<polygon style="fill:#C74436;" points="242.759,326.621 275.774,403.597 279.658,400.066 339.862,412.954 358.753,354.339 
		362.196,353.28 331.034,273.655 	"/>
</g>
<g>
	<polygon style="fill:#FDB62F;" points="233.931,0 279.658,41.313 339.862,28.337 358.753,87.04 417.368,105.931 404.48,166.135 
		445.793,211.862 404.48,257.589 417.368,317.793 358.753,336.684 339.862,395.299 279.658,382.411 233.931,423.724 
		188.204,382.411 128,395.299 109.109,336.684 50.406,317.793 63.382,257.589 22.069,211.862 63.382,166.135 50.406,105.931 
		109.109,87.04 128,28.337 188.204,41.313 	"/>
	<path style="fill:#FDB62F;" d="M454.621,70.621L454.621,70.621c-3.001-18.114-17.196-32.309-35.31-35.31l0,0
		c18.114-3.001,32.309-17.196,35.31-35.31l0,0c3.001,18.114,17.196,32.309,35.31,35.31l0,0
		C471.817,38.312,457.622,52.506,454.621,70.621z"/>
</g>
<path style="fill:#FFA83D;" d="M445.793,211.862l-41.313-45.727l12.888-60.204L371.73,91.189
	c-49.523,136.739-167.194,214.069-259.443,255.294L128,395.299l60.204-12.888l45.727,41.313l45.727-41.313l60.204,12.888
	l18.891-58.615l58.615-18.891l-12.888-60.204L445.793,211.862z"/>
<g>
	<path style="fill:#FFFFFF;" d="M180.966,194.207c-19.5,0-35.31-15.81-35.31-35.31s15.81-35.31,35.31-35.31s35.31,15.81,35.31,35.31
		S200.466,194.207,180.966,194.207z M180.966,141.241c-9.754,0-17.655,7.901-17.655,17.655c0,9.754,7.901,17.655,17.655,17.655
		c9.754,0,17.655-7.901,17.655-17.655C198.621,149.142,190.72,141.241,180.966,141.241z"/>
	<path style="fill:#FFFFFF;" d="M295.724,308.966c-19.5,0-35.31-15.81-35.31-35.31c0-19.5,15.81-35.31,35.31-35.31
		c19.5,0,35.31,15.81,35.31,35.31C331.034,293.155,315.224,308.966,295.724,308.966z M295.724,256
		c-9.754,0-17.655,7.901-17.655,17.655c0,9.754,7.901,17.655,17.655,17.655c9.754,0,17.655-7.901,17.655-17.655
		C313.379,263.901,305.479,256,295.724,256z"/>
	
		<rect x="146.502" y="203.052" transform="matrix(-0.7071 0.7071 -0.7071 -0.7071 549.1039 196.3124)" style="fill:#FFFFFF;" width="174.785" height="17.655"/>
</g>
<g>
</g>
<g>
</g>
<g>
</g>
<g>
</g>
<g>
</g>
<g>
</g>
<g>
</g>
<g>
</g>
<g>
</g>
<g>
</g>
<g>
</g>
<g>
</g>
<g>
</g>
<g>
</g>
<g>
</g>
</svg>
