<?xml version="1.0" encoding="iso-8859-1"?>
<!-- Generator: Adobe Illustrator 19.0.0, SVG Export Plug-In . SVG Version: 6.00 Build 0)  -->
<svg version="1.1" id="Capa_1" xmlns="http://www.w3.org/2000/svg" xmlns:xlink="http://www.w3.org/1999/xlink" x="0px" y="0px"
	 viewBox="0 0 512 512" style="enable-background:new 0 0 512 512;" xml:space="preserve">
<g>
	<g>
		<path d="M467,61H45C20.187,61,0,81.187,0,106c0,12.843,0,289.129,0,300c0,24.813,20.187,45,45,45h422c24.813,0,45-20.187,45-45
			c0-12.843,0-289.129,0-300C512,81.187,491.813,61,467,61z M30,181h45c8.271,0,15,6.729,15,15v120c0,8.271-6.729,15-15,15H30V181z
			 M241,421H45c-8.271,0-15-6.729-15-15v-45h45c24.813,0,45-20.187,45-45V196c0-24.813-20.187-45-45-45H30v-45
			c0-8.271,6.729-15,15-15h196v91.509c-34.192,6.968-60,37.271-60,73.491c0,36.22,25.808,66.522,60,73.491V421z M211,256
			c0-24.813,20.187-45,45-45s45,20.187,45,45s-20.187,45-45,45S211,280.813,211,256z M482,331h-45c-8.271,0-15-6.729-15-15V196
			c0-8.271,6.729-15,15-15h45V331z M482,151h-45c-24.813,0-45,20.187-45,45v120c0,24.813,20.187,45,45,45h45v45
			c0,8.271-6.729,15-15,15H271v-91.509c34.192-6.968,60-37.271,60-73.491c0-36.22-25.808-66.522-60-73.491V91h196
			c8.271,0,15,6.729,15,15V151z"/>
	</g>
</g>
<g>
</g>
<g>
</g>
<g>
</g>
<g>
</g>
<g>
</g>
<g>
</g>
<g>
</g>
<g>
</g>
<g>
</g>
<g>
</g>
<g>
</g>
<g>
</g>
<g>
</g>
<g>
</g>
<g>
</g>
</svg>
