<?xml version="1.0" encoding="iso-8859-1"?>
<!-- Generator: Adobe Illustrator 19.0.0, SVG Export Plug-In . SVG Version: 6.00 Build 0)  -->
<svg version="1.1" id="Capa_1" xmlns="http://www.w3.org/2000/svg" xmlns:xlink="http://www.w3.org/1999/xlink" x="0px" y="0px"
	 viewBox="0 0 384 384" style="enable-background:new 0 0 384 384;" xml:space="preserve">
<path style="fill:#FFDC7B;" d="M367.84,186.64c-21.44,20.88-50.8,33.84-83.2,33.84c-12.16,0-23.92-1.84-34.96-5.2
	c-19.36-5.92-36.64-16.72-50.4-30.88c-13.84-14.16-24.16-31.84-29.52-51.6c-2.8-10-4.24-20.56-4.24-31.44
	c0-32.4,12.88-61.76,33.84-83.2c24.32,0.96,47.36,6.96,68.16,16.88c17.76,8.4,33.92,19.68,47.76,33.36
	c13.84,13.6,25.52,29.44,34.24,47.04C360.32,136.96,366.8,161.12,367.84,186.64z"/>
<path style="fill:#38B4C1;" d="M368,194c0,97.2-78.72,176-176,176c-97.2,0-176-78.8-176-176S94.8,18,192,18
	c2.56,0,5.04,0.08,7.36,0.16c-20.96,21.44-33.84,50.8-33.84,83.2c0,10.88,1.44,21.44,4.24,31.44c5.36,19.76,15.68,37.44,29.52,51.6
	c13.76,14.16,31.04,24.96,50.4,30.88c11.04,3.36,22.8,5.2,34.96,5.2c32.4,0,61.76-12.96,83.2-33.84
	C367.92,189.04,368,191.52,368,194z"/>
<path style="fill:#141F38;" d="M383.824,184.056c0-0.024,0.008-0.048,0-0.072c-1.12-27.344-7.848-53.496-19.968-77.648
	c-9.384-18.928-21.952-36.2-37.336-51.32C311.376,40.04,293.824,27.784,274.4,18.6c-0.248-0.12-0.504-0.216-0.752-0.336
	c-0.056-0.024-0.112-0.056-0.176-0.08c-23.232-10.928-47.944-17-73.488-18.016c-0.016,0-0.032,0-0.048,0c-0.008,0-0.016,0-0.016,0
	C197.424,0.08,194.752,0,192,0C86.128,0,0,86.128,0,192s86.128,192,192,192c105.864,0,192-86.128,192-192
	c0-2.656-0.08-5.312-0.168-7.88C383.832,184.096,383.824,184.08,383.824,184.056z M346.952,181.44
	c-1.48,1.12-2.968,2.224-4.496,3.264c-1.128,0.768-2.28,1.496-3.44,2.216c-1.552,0.968-3.12,1.888-4.712,2.768
	c-1.192,0.656-2.392,1.296-3.616,1.904c-1.624,0.816-3.28,1.576-4.952,2.296c-1.24,0.536-2.48,1.072-3.736,1.56
	c-1.72,0.672-3.464,1.264-5.224,1.832c-1.256,0.408-2.496,0.84-3.768,1.2c-1.848,0.528-3.72,0.952-5.6,1.376
	c-1.216,0.272-2.424,0.584-3.656,0.816c-2.088,0.392-4.208,0.656-6.328,0.92c-1.048,0.128-2.088,0.32-3.144,0.416
	c-3.192,0.296-6.408,0.464-9.648,0.464c-0.488,0-0.968-0.048-1.448-0.056l60.624-60.608c3.856,11.64,6.488,23.656,7.56,36.048
	c-0.416,0.352-0.808,0.744-1.224,1.088C349.104,179.816,348.024,180.624,346.952,181.44z M182.4,86.552
	c0.264-2.128,0.528-4.256,0.92-6.352c0.232-1.232,0.544-2.448,0.816-3.672c0.424-1.872,0.848-3.744,1.368-5.584
	c0.368-1.28,0.792-2.544,1.208-3.808c0.568-1.744,1.16-3.472,1.816-5.176c0.496-1.272,1.04-2.528,1.584-3.784
	c0.72-1.648,1.464-3.28,2.264-4.88c0.616-1.24,1.264-2.464,1.936-3.68c0.864-1.568,1.776-3.104,2.72-4.624
	c0.736-1.176,1.48-2.352,2.264-3.504c1.016-1.496,2.104-2.96,3.2-4.4c0.832-1.096,1.664-2.2,2.544-3.264
	c0.344-0.416,0.72-0.8,1.072-1.208c11.136,0.96,22.04,3.224,32.688,6.504l-57.136,57.136c0.064-2.2,0.112-4.4,0.312-6.568
	C182.08,88.632,182.272,87.6,182.4,86.552z M188.096,135.08l82.416-82.408c7.552,4.232,14.68,9.072,21.392,14.448l-91.488,91.448
	C195.312,151.32,191.184,143.432,188.096,135.08z M314.768,89.512c5.584,6.664,10.592,13.712,14.968,21.128l-84.08,84.056
	c-8.176-3.352-15.904-7.744-23-13.112L314.768,89.512z M192,352c-88.224,0-160-71.776-160-160
	c0-79.464,58.216-145.584,134.248-157.928c-0.296,0.544-0.552,1.104-0.84,1.648c-0.408,0.76-0.792,1.536-1.184,2.312
	c-1.544,3.024-2.984,6.096-4.288,9.232c-0.208,0.496-0.44,0.976-0.64,1.472c-1.416,3.512-2.648,7.088-3.768,10.72
	c-0.264,0.856-0.504,1.72-0.752,2.584c-0.976,3.432-1.848,6.896-2.56,10.408c-0.064,0.32-0.152,0.64-0.216,0.96
	c-0.728,3.768-1.248,7.584-1.664,11.424c-0.096,0.928-0.184,1.848-0.264,2.776c-0.336,3.896-0.568,7.808-0.568,11.768
	c0,12.272,1.624,24.304,4.8,35.632c5.968,22,17.56,42.264,33.488,58.56c0.016,0.016,0.04,0.04,0.056,0.056
	c0.024,0.024,0.04,0.048,0.064,0.072c0.032,0.032,0.072,0.056,0.104,0.088c15.824,16.216,35.512,28.256,56.992,34.824
	c12.84,3.904,26.176,5.888,39.616,5.888c3.944,0,7.848-0.232,11.728-0.56c0.928-0.08,1.856-0.168,2.784-0.264
	c3.832-0.408,7.648-0.936,11.408-1.664c0.304-0.056,0.592-0.144,0.896-0.2c3.52-0.712,7-1.584,10.44-2.568
	c0.864-0.248,1.736-0.488,2.592-0.76c3.624-1.112,7.216-2.352,10.728-3.768c0.464-0.184,0.912-0.408,1.376-0.6
	c3.168-1.32,6.28-2.776,9.344-4.336c0.752-0.384,1.512-0.76,2.256-1.16c0.576-0.304,1.168-0.576,1.736-0.888
	C337.6,293.76,271.48,352,192,352z"/>
<g>
</g>
<g>
</g>
<g>
</g>
<g>
</g>
<g>
</g>
<g>
</g>
<g>
</g>
<g>
</g>
<g>
</g>
<g>
</g>
<g>
</g>
<g>
</g>
<g>
</g>
<g>
</g>
<g>
</g>
</svg>
