<?xml version="1.0" encoding="iso-8859-1"?>
<!-- Generator: Adobe Illustrator 19.0.0, SVG Export Plug-In . SVG Version: 6.00 Build 0)  -->
<svg version="1.1" id="Layer_1" xmlns="http://www.w3.org/2000/svg" xmlns:xlink="http://www.w3.org/1999/xlink" x="0px" y="0px"
	 viewBox="0 0 512 512" style="enable-background:new 0 0 512 512;" xml:space="preserve">
<path style="fill:#DBD9D7;" d="M381.788,196.482h-41.929c-13.872,0-25.158,11.285-25.158,25.158
	c0,13.872,11.285,25.158,25.158,25.158h41.929c9.248,0,16.772,7.524,16.772,16.772v134.174c0,9.247-7.524,16.772-16.772,16.772
	h-41.929c-13.872,0-25.158,11.285-25.158,25.158c0,13.872,11.285,25.158,25.158,25.158h41.929c36.992,0,67.087-30.095,67.087-67.087
	V263.569C448.875,226.577,418.779,196.482,381.788,196.482z"/>
<path style="fill:#EDECEB;" d="M306.315,162.938v-58.701c0-9.263-7.508-16.772-16.772-16.772H121.826
	c-9.263,0-16.772,7.508-16.772,16.772v58.701c-23.12,0-41.929,18.809-41.929,41.929V470.07c0,23.157,18.773,41.929,41.929,41.929
	h201.261c23.157,0,41.929-18.773,41.929-41.929V204.868C348.244,181.748,329.435,162.938,306.315,162.938z"/>
<path style="fill:#DBD9D7;" d="M96.668,470.071V204.868c0-23.12,18.809-41.929,41.929-41.929v-58.701
	c0-9.263,7.508-16.772,16.772-16.772h-33.543c-9.263,0-16.772,7.508-16.772,16.772v58.701c-23.12,0-41.929,18.809-41.929,41.929
	v265.203c0,23.157,18.773,41.929,41.929,41.929h33.543C115.44,512,96.668,493.227,96.668,470.071z"/>
<circle style="fill:#FFFFFF;" cx="289.542" cy="196.481" r="25.158"/>
<path style="fill:#FFB266;" d="M308.397,238.539c-3.724-0.922-7.53,0.681-9.341,4.055c-1.269,2-21.209,30.91-89.622-3.297
	c-71.669-35.835-108.767,0.026-110.31,1.571c-1.572,1.572-2.456,3.706-2.456,5.93v209.647c0,13.872,11.285,25.158,25.158,25.158
	h167.717c13.872,0,25.158-11.285,25.158-25.158V246.798C314.701,242.943,312.138,239.466,308.397,238.539z"/>
<path style="fill:#FF9940;" d="M306.315,464.829H121.826c-4.631,0-8.386-3.755-8.386-8.386V231.34
	c-8.995,4.358-13.782,8.994-14.316,9.527c-1.572,1.572-2.456,3.706-2.456,5.93v209.647c0,13.872,11.285,25.158,25.158,25.158
	h167.717c11.331,0,20.934-7.532,24.072-17.851C311.304,464.45,308.854,464.829,306.315,464.829z"/>
<g>
	<circle style="fill:#F3DCAA;" cx="264.385" cy="305.497" r="16.772"/>
	<circle style="fill:#F3DCAA;" cx="146.983" cy="322.269" r="16.772"/>
	<circle style="fill:#F3DCAA;" cx="239.227" cy="422.899" r="16.772"/>
</g>
<path style="fill:#64DDE3;" d="M368.067,28.092L267.436,0.366c-6.796-1.698-13.857,2.694-15.343,9.531l-83.859,393.56
	c-1.089,5.012,1.063,10.322,5.339,13.158c4.501,2.986,10.579,2.708,14.796-0.652c2.254-1.795,3.837-4.348,4.449-7.163
	l81.103-381.458l88.043,25.155c6.739,1.683,13.569-2.413,15.254-9.152C378.904,36.606,374.806,29.777,368.067,28.092z"/>
<g>
	<path style="fill:#C9C6C2;" d="M105.045,137.782c-4.468,0-8.236-3.667-8.371-8.13c-0.133-4.4,3.294-8.247,7.685-8.613
		l201.261-16.772c4.635-0.386,8.669,3.045,9.054,7.66c0.385,4.615-3.045,8.669-7.661,9.054l-201.261,16.772
		C105.513,137.771,105.278,137.782,105.045,137.782z"/>
	<path style="fill:#C9C6C2;" d="M105.045,162.939c-4.468,0-8.236-3.667-8.371-8.13c-0.133-4.4,3.294-8.247,7.685-8.613
		l201.261-16.772c4.635-0.388,8.669,3.045,9.054,7.66s-3.045,8.669-7.661,9.054L105.751,162.91
		C105.513,162.929,105.278,162.939,105.045,162.939z"/>
</g>
<g>
</g>
<g>
</g>
<g>
</g>
<g>
</g>
<g>
</g>
<g>
</g>
<g>
</g>
<g>
</g>
<g>
</g>
<g>
</g>
<g>
</g>
<g>
</g>
<g>
</g>
<g>
</g>
<g>
</g>
</svg>
