<?xml version="1.0" encoding="iso-8859-1"?>
<!-- Generator: Adobe Illustrator 19.0.0, SVG Export Plug-In . SVG Version: 6.00 Build 0)  -->
<svg version="1.1" id="Capa_1" xmlns="http://www.w3.org/2000/svg" xmlns:xlink="http://www.w3.org/1999/xlink" x="0px" y="0px"
	 viewBox="0 0 464 464" style="enable-background:new 0 0 464 464;" xml:space="preserve">
<path style="fill:#399F49;" d="M32,308H0V92h400v32"/>
<path style="fill:#9ACD72;" d="M64,340H32V124h400v32"/>
<path style="fill:#399F49;" d="M64,156h400v216H64V156z"/>
<path style="fill:#9ACD72;" d="M264,340h142.8c-0.04-13.953,11.239-25.296,25.192-25.336c0.003,0,0.005,0,0.008,0V213.336
	c-13.953-0.035-25.235-11.375-25.2-25.328c0-0.003,0-0.005,0-0.008H121.2c0.04,13.953-11.239,25.296-25.192,25.336
	c-0.003,0-0.005,0-0.008,0v101.328c13.953,0.035,25.235,11.375,25.2,25.328c0,0.003,0,0.005,0,0.008H264z"/>
<circle style="fill:#399F49;" cx="260" cy="264" r="52"/>
<g>
</g>
<g>
</g>
<g>
</g>
<g>
</g>
<g>
</g>
<g>
</g>
<g>
</g>
<g>
</g>
<g>
</g>
<g>
</g>
<g>
</g>
<g>
</g>
<g>
</g>
<g>
</g>
<g>
</g>
</svg>
