<?xml version="1.0" encoding="iso-8859-1"?>
<!-- Generator: Adobe Illustrator 19.0.0, SVG Export Plug-In . SVG Version: 6.00 Build 0)  -->
<svg version="1.1" id="Capa_1" xmlns="http://www.w3.org/2000/svg" xmlns:xlink="http://www.w3.org/1999/xlink" x="0px" y="0px"
	 viewBox="0 0 512.002 512.002" style="enable-background:new 0 0 512.002 512.002;" xml:space="preserve">
<path style="fill:#787780;" d="M164.1,241.879c-5.795,5.736-15.222,5.783-21.064,0L36.761,135.898
	c-5.832-5.832-5.88-15.331,0-21.211l21.313-21.299c17.549-17.52,46.011-17.505,63.501,0l63.867,63.574
	c8.525,8.525,13.198,19.849,13.198,31.934c0,12.1-4.673,23.423-13.169,31.919c-0.029,0.015-0.044,0.044-0.073,0.059L164.1,241.879z"
	/>
<g>
	<path style="fill:#4DBBEB;" d="M512.001,254.702c0,19.799-30,19.799-30,0c0-60-23.399-116.7-66-159.001
		c-42.3-42.3-98.7-65.701-159-65.701c-19.799,0-19.799-30,0-30c68.101,0,132.299,26.4,180.3,74.401
		C485.301,122.701,512.001,186.601,512.001,254.702z"/>
	<path style="fill:#4DBBEB;" d="M452.001,254.702c0,19.799-30,19.799-30,0c0-44.101-17.1-85.501-48.3-116.7
		C342.5,107.1,301.102,90,257.001,90c-19.799,0-19.799-30,0-30c52.2,0,101.1,20.101,137.999,57.001
		C431.601,153.602,452.001,202.5,452.001,254.702z"/>
	<path style="fill:#4DBBEB;" d="M392.001,254.702c0,19.799-30,19.799-30,0c0-27.9-10.8-54.3-30.601-74.101
		c-19.799-19.8-46.199-30.899-74.399-30.899c-19.799,0-19.799-30,0-30c36,0,69.901,14.099,95.4,39.6
		C377.902,184.801,392.001,218.701,392.001,254.702z"/>
</g>
<path style="fill:#57555C;" d="M376.078,475.214L270.17,369.306c-5.859-5.859-5.859-15.352,0-21.211l21.299-21.299
	c17.52-17.52,45.996-17.52,63.516,0l63.604,63.604c17.49,17.49,17.505,45.952,0.044,63.457l-20.977,21.284
	C391.623,481.267,381.784,480.921,376.078,475.214z"/>
<path style="fill:#AEADB3;" d="M280.775,337.7l-27.599,27.001c-21.601-1.5-46.8-17.1-67.5-37.5
	c-20.7-20.7-36.601-46.5-38.401-68.401l27.599-27.599l-127.5-127.2l-10.499,10.8c-44.399,44.101-49.2,112.8-11.7,162.9
	c30.601,41.4,62.701,78.9,96.901,113.101c35.099,34.799,71.999,66.599,112.2,96.301c22.8,16.8,48.9,24.899,75,24.899
	c36.599,0,72.9-16.199,98.099-47.999L280.775,337.7z"/>
<path style="fill:#159CE4;" d="M362.001,254.702c0-27.9-10.8-54.3-30.601-74.101l21-21.299c25.501,25.499,39.6,59.399,39.6,95.4
	C392.001,274.501,362.001,274.501,362.001,254.702z"/>
<path style="fill:#8B8892;" d="M280.775,337.7l126.599,126.301c-25.199,31.8-61.5,47.999-98.099,47.999
	c-26.1,0-52.2-8.099-75-24.899c-40.201-29.702-77.1-61.501-112.2-96.301l63.6-63.6c20.7,20.4,45.899,36,67.5,37.5L280.775,337.7z"/>
<g>
	<path style="fill:#159CE4;" d="M395,117.001c36.601,36.601,57.001,85.499,57.001,137.701c0,19.799-30,19.799-30,0
		c0-44.101-17.1-85.501-48.3-116.7L395,117.001z"/>
	<path style="fill:#159CE4;" d="M512.001,254.702c0,19.799-30,19.799-30,0c0-60-23.399-116.7-66-159.001l21.3-21.3
		C485.301,122.701,512.001,186.601,512.001,254.702z"/>
</g>
<g>
</g>
<g>
</g>
<g>
</g>
<g>
</g>
<g>
</g>
<g>
</g>
<g>
</g>
<g>
</g>
<g>
</g>
<g>
</g>
<g>
</g>
<g>
</g>
<g>
</g>
<g>
</g>
<g>
</g>
</svg>
