<?xml version="1.0" encoding="iso-8859-1"?>
<!-- Generator: Adobe Illustrator 19.0.0, SVG Export Plug-In . SVG Version: 6.00 Build 0)  -->
<svg version="1.1" id="Capa_1" xmlns="http://www.w3.org/2000/svg" xmlns:xlink="http://www.w3.org/1999/xlink" x="0px" y="0px"
	 viewBox="0 0 60 60" style="enable-background:new 0 0 60 60;" xml:space="preserve">
<g>
	<g>
		<path d="M56,22C56,9.869,47.252,0,36.5,0c-3.051,0-5.941,0.797-8.515,2.212C25.317,0.75,22.467,0,19.5,0C8.748,0,0,9.869,0,22
			c0,9.976,5.918,18.417,14,21.103v13.192C14,58.338,15.662,60,17.704,60h3.592C23.338,60,25,58.338,25,56.295V43.1
			c1.018-0.34,2.013-0.78,2.985-1.313c0.963,0.53,1.972,0.969,3.015,1.316v13.192C31,58.338,32.662,60,34.704,60h3.592
			C40.338,60,42,58.338,42,56.295V43.103C50.082,40.417,56,31.976,56,22z M40.711,41.39c-0.551,0.156-1.095,0.273-1.637,0.369
			c-0.171,0.029-0.34,0.066-0.513,0.09c-0.21,0.03-0.419,0.048-0.628,0.068c-0.428,0.04-0.859,0.071-1.295,0.075
			c-0.091,0.001-0.182,0.001-0.273,0c-0.436-0.004-0.867-0.035-1.295-0.075c-0.209-0.021-0.418-0.039-0.628-0.068
			c-0.173-0.023-0.342-0.061-0.513-0.09c-0.542-0.096-1.087-0.213-1.637-0.369c-1.353-0.384-2.646-0.938-3.855-1.659
			c-0.236-0.141-0.465-0.292-0.693-0.443c-0.215-0.143-0.427-0.29-0.636-0.442c-0.19-0.138-0.38-0.276-0.564-0.421
			c-0.385-0.306-0.762-0.622-1.124-0.961c-0.059-0.055-0.113-0.115-0.171-0.17c-0.348-0.335-0.685-0.684-1.009-1.048
			c-0.066-0.074-0.131-0.148-0.195-0.222c-0.006-0.007-0.011-0.015-0.018-0.022H48.98C46.745,38.597,43.898,40.485,40.711,41.39z
			 M54,22c0,4.505-1.326,8.653-3.533,12H22.533c-0.176-0.267-0.362-0.526-0.526-0.804c-0.012-0.02-0.023-0.041-0.035-0.061
			c-0.301-0.512-0.583-1.04-0.843-1.584c-0.006-0.013-0.013-0.026-0.02-0.04c-0.264-0.556-0.506-1.128-0.724-1.714
			c-0.009-0.025-0.017-0.051-0.026-0.076c-0.193-0.524-0.362-1.061-0.515-1.606c-0.029-0.102-0.058-0.203-0.085-0.305
			c-0.153-0.576-0.288-1.161-0.396-1.757c-0.008-0.045-0.013-0.091-0.021-0.137c-0.094-0.537-0.164-1.083-0.219-1.634
			c-0.015-0.154-0.03-0.307-0.042-0.462C19.033,23.22,19,22.615,19,22s0.033-1.22,0.081-1.821c0.012-0.154,0.027-0.308,0.042-0.462
			c0.055-0.551,0.125-1.097,0.219-1.634c0.008-0.045,0.013-0.091,0.021-0.137c0.108-0.597,0.243-1.182,0.396-1.758
			c0.027-0.102,0.057-0.203,0.085-0.304c0.154-0.545,0.323-1.082,0.515-1.606c0.009-0.025,0.017-0.051,0.026-0.076
			c0.218-0.586,0.459-1.158,0.724-1.714c0.006-0.013,0.013-0.026,0.02-0.04c0.26-0.544,0.542-1.072,0.843-1.584
			c0.012-0.02,0.023-0.041,0.035-0.061c0.601-1.013,1.285-1.957,2.034-2.826c0.064-0.074,0.129-0.148,0.195-0.222
			c0.324-0.365,0.662-0.714,1.01-1.049c0.058-0.055,0.112-0.115,0.171-0.17c0.361-0.339,0.739-0.655,1.124-0.961
			c0.184-0.146,0.374-0.283,0.564-0.421c0.209-0.153,0.421-0.299,0.636-0.442c0.229-0.151,0.457-0.303,0.693-0.443
			C30.851,2.828,33.591,2,36.5,2C46.149,2,54,10.972,54,22z M19.5,2c2.261,0,4.45,0.488,6.528,1.453
			c-0.026,0.018-0.05,0.039-0.075,0.058c-0.271,0.197-0.536,0.401-0.798,0.613c-0.074,0.06-0.15,0.118-0.224,0.179
			c-0.272,0.227-0.539,0.46-0.799,0.701c-0.168,0.155-0.329,0.317-0.491,0.478c-0.103,0.102-0.206,0.202-0.307,0.306
			c-0.184,0.189-0.363,0.384-0.539,0.58c-0.053,0.059-0.105,0.118-0.157,0.178c-0.853,0.971-1.62,2.024-2.294,3.148
			c-0.005,0.009-0.01,0.017-0.016,0.026c-0.66,1.105-1.23,2.274-1.702,3.498c-0.043,0.111-0.087,0.22-0.128,0.332
			c-0.084,0.227-0.163,0.456-0.24,0.687c-0.056,0.167-0.109,0.335-0.162,0.504c-0.063,0.204-0.126,0.407-0.184,0.613
			c-0.071,0.252-0.135,0.507-0.198,0.762c-0.04,0.164-0.083,0.328-0.12,0.493c-0.08,0.359-0.153,0.721-0.217,1.087
			c-0.025,0.14-0.045,0.282-0.067,0.423c-0.045,0.282-0.086,0.566-0.121,0.851c-0.018,0.15-0.035,0.3-0.051,0.45
			c-0.031,0.294-0.055,0.591-0.075,0.888c-0.009,0.133-0.02,0.266-0.027,0.4C17.014,21.136,17,21.566,17,22s0.014,0.864,0.036,1.292
			c0.007,0.134,0.018,0.267,0.027,0.4c0.02,0.298,0.045,0.594,0.075,0.888c0.016,0.15,0.032,0.3,0.051,0.45
			c0.035,0.286,0.076,0.569,0.121,0.851c0.022,0.141,0.042,0.282,0.067,0.422c0.065,0.366,0.137,0.729,0.218,1.089
			c0.037,0.164,0.079,0.326,0.119,0.49c0.063,0.256,0.127,0.511,0.198,0.764c0.058,0.206,0.121,0.41,0.184,0.613
			c0.052,0.169,0.106,0.337,0.162,0.504c0.077,0.231,0.157,0.46,0.241,0.687c0.041,0.111,0.085,0.22,0.127,0.33
			c0.432,1.12,0.943,2.197,1.534,3.219H5.533C3.326,30.653,2,26.505,2,22C2,10.972,9.851,2,19.5,2z M21.296,58h-3.592
			C16.765,58,16,57.235,16,56.295V51h7v5.295C23,57.235,22.235,58,21.296,58z M23,49h-7v-5.362C17.136,43.872,18.305,44,19.5,44
			c0.576,0,1.146-0.038,1.712-0.093c0.018-0.002,0.036-0.003,0.054-0.005c0.583-0.059,1.162-0.138,1.734-0.256V49z M26.028,40.547
			c-0.518,0.24-1.043,0.451-1.574,0.632l-0.176,0.05c-0.201,0.066-0.407,0.114-0.61,0.171c-0.586,0.164-1.165,0.288-1.741,0.384
			c-0.138,0.022-0.275,0.05-0.414,0.068c-0.226,0.031-0.451,0.053-0.676,0.074c-0.389,0.034-0.78,0.06-1.173,0.064
			c-0.1,0.001-0.201,0.002-0.301,0.001c-0.436-0.004-0.867-0.035-1.295-0.075c-0.209-0.021-0.418-0.039-0.628-0.068
			c-0.173-0.023-0.342-0.061-0.513-0.09c-0.542-0.096-1.087-0.213-1.637-0.369c-3.187-0.905-6.034-2.794-8.266-5.39h14.434
			c0.37,0.505,0.768,0.986,1.18,1.453c0.052,0.06,0.105,0.12,0.158,0.179c0.177,0.196,0.355,0.391,0.539,0.58
			c0.101,0.104,0.204,0.204,0.307,0.306c0.163,0.161,0.324,0.323,0.491,0.478c0.261,0.242,0.528,0.475,0.799,0.701
			c0.074,0.061,0.149,0.119,0.224,0.179c0.261,0.212,0.527,0.416,0.798,0.613C25.979,40.508,26.003,40.529,26.028,40.547z
			 M38.296,58h-3.592C33.765,58,33,57.235,33,56.295V51h7v5.295C40,57.235,39.235,58,38.296,58z M40,49h-7v-5.362
			C34.136,43.872,35.305,44,36.5,44s2.364-0.128,3.5-0.362V49z"/>
		<path d="M53.5,46c-3.584,0-6.5,2.916-6.5,6.5s2.916,6.5,6.5,6.5s6.5-2.916,6.5-6.5S57.084,46,53.5,46z M53.5,57
			c-2.481,0-4.5-2.019-4.5-4.5s2.019-4.5,4.5-4.5s4.5,2.019,4.5,4.5S55.981,57,53.5,57z"/>
	</g>
</g>
<g>
</g>
<g>
</g>
<g>
</g>
<g>
</g>
<g>
</g>
<g>
</g>
<g>
</g>
<g>
</g>
<g>
</g>
<g>
</g>
<g>
</g>
<g>
</g>
<g>
</g>
<g>
</g>
<g>
</g>
</svg>
