<?xml version="1.0" encoding="iso-8859-1"?>
<!-- Generator: Adobe Illustrator 19.0.0, SVG Export Plug-In . SVG Version: 6.00 Build 0)  -->
<svg version="1.1" id="Capa_1" xmlns="http://www.w3.org/2000/svg" xmlns:xlink="http://www.w3.org/1999/xlink" x="0px" y="0px"
	 viewBox="0 0 511.999 511.999" style="enable-background:new 0 0 511.999 511.999;" xml:space="preserve">
<g>
	<path style="fill:#88E5FF;" d="M10,232.612c0,36.719,110.138,66.486,246,66.486s245.999-29.768,245.999-66.486
		c0-36.721-110.137-66.486-245.999-66.486c-32.42,0-63.376,1.695-91.719,4.773c-20.5,2.229-39.634,5.18-56.967,8.74
		c-22.245,4.568-41.523,10.135-56.921,16.455C24.858,206.575,10,219.124,10,232.612z"/>
	<path style="fill:#E63A3B;" d="M256,299.099c-135.862,0-246-29.768-246-66.486v70.002c0,36.719,110.138,66.486,246,66.486
		s245.999-29.768,245.999-66.486v-70.002C501.999,269.331,391.862,299.099,256,299.099z"/>
	<path style="fill:#00BAF7;" d="M256,369.101c-135.862,0-246-29.768-246-66.486v70.002c0,36.719,110.138,66.486,246,66.486
		s245.999-29.768,245.999-66.486v-50.002v-20C501.999,339.333,391.862,369.101,256,369.101z"/>
</g>
<path d="M432.557,175.945C385.269,163.164,322.565,156.126,256,156.126c-28.23,0-55.759,1.27-81.719,3.703V98.602
	c-0.073-12.829-6.574-23.839-17.837-30.206c-13.013-7.356-30.116-7.331-42.561,0.063c-3.821,2.271-7.03,5.159-9.579,8.52
	c-1.498-1.186-3.099-2.284-4.827-3.261c-13.012-7.355-30.116-7.331-42.561,0.063C46.3,80.088,40.318,91.107,40.495,104.023
	L40.4,189.559C13.831,201.684,0,216.284,0,232.612v140.004c0,23.025,27.471,42.62,79.442,56.666
	c47.29,12.781,109.993,19.82,176.558,19.82s129.268-7.039,176.557-19.82c51.972-14.046,79.442-33.641,79.442-56.666V232.612
	C511.999,209.587,484.528,189.991,432.557,175.945z M491.999,302.614c0,9.172-16.934,24.46-64.66,37.359
	C381.702,352.308,320.853,359.101,256,359.101c-64.852,0-125.702-6.793-171.339-19.127C36.935,327.074,20,311.786,20,302.614V264.14
	c13.366,9.603,33.302,18.073,59.442,25.138c47.29,12.781,109.993,19.82,176.558,19.82s129.268-7.039,176.557-19.82
	c26.141-7.064,46.076-15.535,59.442-25.138L491.999,302.614L491.999,302.614z M117.314,136.701l36.967-4.335v29.604
	c-12.835,1.553-25.196,3.405-36.967,5.543C117.314,167.513,117.314,136.701,117.314,136.701z M124.1,85.654
	c6.28-3.732,15.744-3.667,22.502,0.153c5.064,2.862,7.647,7.205,7.68,12.852v13.571l-36.967,4.335v-12.641
	c-0.006-0.989-0.063-1.963-0.144-2.929c0.195-0.809,0.305-1.649,0.291-2.52C117.367,92.559,119.539,88.364,124.1,85.654z
	 M60.495,103.797c-0.095-5.917,2.077-10.111,6.638-12.82c6.278-3.731,15.743-3.669,22.502,0.153
	c5.063,2.862,7.647,7.205,7.68,12.852v67.57c-6.169,1.379-12.136,2.844-17.872,4.394c-6.765,1.828-13.104,3.753-19.033,5.765
	l0.087-77.743C60.496,103.91,60.496,103.853,60.495,103.797z M54.11,205.373c0.107-0.043,0.214-0.087,0.32-0.134
	c8.298-3.39,18.303-6.763,30.231-9.986c4.097-1.107,8.32-2.168,12.653-3.185v30.413c0,5.522,4.478,10,10,10s10-4.478,10-10v-34.633
	c11.716-2.214,24.083-4.129,36.967-5.735v35.046c0,5.523,4.478,10,10,10s10-4.477,10-10v-37.252
	c25.855-2.486,53.405-3.781,81.719-3.781c64.853,0,125.703,6.793,171.339,19.127c47.726,12.898,64.66,28.186,64.66,37.359
	c0,9.172-16.934,24.46-64.66,37.359C381.702,282.306,320.853,289.099,256,289.099c-64.852,0-125.702-6.793-171.339-19.127
	C36.935,257.072,20,241.784,20,232.612C20,225.763,29.451,215.502,54.11,205.373z M427.339,409.976
	C381.702,422.309,320.853,429.103,256,429.103c-64.852,0-125.702-6.793-171.339-19.127C36.935,397.076,20,381.788,20,372.616
	v-38.474c13.366,9.603,33.302,18.073,59.442,25.138C126.732,372.061,189.435,379.1,256,379.1s129.268-7.039,176.557-19.82
	c26.141-7.064,46.076-15.535,59.442-25.138v38.474C491.999,381.788,475.065,397.076,427.339,409.976z"/>
<path d="M284.556,211.976c13.166-0.466,55.682,0.245,93.721,8.968c0.753,0.173,1.504,0.255,2.244,0.255
	c4.558,0,8.677-3.136,9.738-7.767c1.234-5.384-2.129-10.748-7.512-11.982c-40.136-9.204-84.991-9.952-98.895-9.462
	c-5.52,0.194-9.836,4.826-9.643,10.346C274.404,207.851,279.004,212.137,284.556,211.976z"/>
<path d="M407.079,229.338l0.288,0.119c1.25,0.517,2.544,0.762,3.817,0.762c3.926,0,7.651-2.328,9.245-6.182
	c2.11-5.104-0.315-10.951-5.42-13.063l-0.288-0.119c-5.104-2.109-10.952,0.316-13.063,5.42
	C399.549,221.379,401.975,227.227,407.079,229.338z"/>
<g>
</g>
<g>
</g>
<g>
</g>
<g>
</g>
<g>
</g>
<g>
</g>
<g>
</g>
<g>
</g>
<g>
</g>
<g>
</g>
<g>
</g>
<g>
</g>
<g>
</g>
<g>
</g>
<g>
</g>
</svg>
