<?xml version="1.0"?>
<svg xmlns="http://www.w3.org/2000/svg" xmlns:xlink="http://www.w3.org/1999/xlink" version="1.1" id="Layer_1" x="0px" y="0px" viewBox="0 0 512 512" style="enable-background:new 0 0 512 512;" xml:space="preserve" width="512px" height="512px" class=""><g><g>
	<g>
		<g>
			<path d="M510.592,238.507c-2.069-15.979-6.635-30.464-13.355-43.605c-0.064-0.128-0.149-0.235-0.213-0.363     c-15.211-29.483-39.893-52.992-64.085-76.032c-6.699-6.379-13.461-12.821-20.032-19.392     c-6.635-6.613-13.077-13.397-19.499-20.139c-24.363-25.579-48.75-53.083-81.344-66.347c-0.419-0.17-1.707-0.704-1.707-0.704     C298.773,6.72,286.25,3.029,272.533,1.344C267.52,0.555,262.144,0,256,0C114.837,0,0,114.837,0,256s114.837,256,256,256     s256-114.837,256-256C512,249.493,511.467,243.733,510.592,238.507z M256,490.667c-129.387,0-234.667-105.28-234.667-234.667     c0-126.485,96.333-234.667,226.048-234.197c10.187,0.037,31.428,2.287,39.994,7.801c6.958,4.479,11.548,25.521,14.108,41.287     c4.629,28.523,10.389,64.021,42.987,96.619c32.598,32.598,68.096,38.357,96.619,42.987c9.387,1.536,17.237,2.88,23.872,4.757     c3.264,0.917,6.165,2.027,8.789,3.307c0.341,0.171,0.64,0.363,0.981,0.533c2.304,1.216,4.352,2.709,6.144,4.395     c0.277,0.256,0.533,0.533,0.789,0.789c1.749,1.813,3.243,3.989,4.459,6.464c0.128,0.277,0.277,0.512,0.405,0.789     c2.667,5.952,4.139,13.632,4.139,24.469C490.667,385.387,385.387,490.667,256,490.667z" data-original="#000000" class="active-path" data-old_color="#FF000C" fill="#F23A46"/>
			<path d="M437.675,231.595c-29.888-4.864-70.827-11.499-108.288-48.96s-44.096-78.4-48.96-108.288     c-2.027-12.523-1.953-23.437-5.952-26.731c-4.219-3.475-15.871-4.597-21.333-4.779C137.667,39,42.667,139.328,42.667,256     c0,117.632,95.701,213.333,213.333,213.333S469.333,373.632,469.333,256c0-3.989-0.427-7.915-0.704-11.861     C466.923,236.437,460.715,235.328,437.675,231.595z M127.765,203.179c-11.925-11.904-12.544-31.147-1.387-43.797     c3.925-4.416,10.645-4.843,15.061-0.939c4.416,3.883,4.843,10.624,0.939,15.061c-3.712,4.203-3.499,10.624,0.491,14.592     c2.027,2.027,4.693,3.136,7.552,3.136c2.859,0,5.525-1.109,7.531-3.115c3.371-3.371,4.373-7.253-1.024-16.149l-1.088-1.856     c-12.544-20.693-5.781-34.453,2.112-42.347c12.48-12.48,32.789-12.48,45.269,0c11.925,11.925,12.523,31.147,1.408,43.776     c-3.925,4.437-10.624,4.843-15.061,0.96c-4.416-3.904-4.843-10.645-0.939-15.061c3.691-4.203,3.499-10.624-0.491-14.592     c-4.139-4.139-10.923-4.16-15.104,0c-3.371,3.371-4.373,7.253,1.045,16.192l1.109,1.835c12.523,20.651,5.76,34.411-2.155,42.304     c-6.037,6.08-14.059,9.387-22.635,9.387C141.845,212.565,133.803,209.216,127.765,203.179z M210.731,281.749     c-1.856,0-3.755-0.491-5.483-1.515c-5.056-3.029-6.677-9.579-3.648-14.635l7.019-11.712L197.76,243.05l-11.712,7.019     c-5.056,3.029-11.584,1.387-14.635-3.648c-3.029-5.056-1.387-11.605,3.648-14.635l75.435-45.269     c4.181-2.517,9.579-1.877,13.035,1.6c3.456,3.456,4.117,8.832,1.6,13.035l-45.248,75.435     C217.899,279.915,214.357,281.749,210.731,281.749z M278.635,338.965c-2.091,2.091-4.821,3.115-7.552,3.115     c-2.731,0-5.461-1.045-7.552-3.115l-30.165-30.187c-4.16-4.16-4.16-10.923,0-15.083l60.331-60.331     c4.16-4.16,10.923-4.16,15.083,0c4.16,4.16,4.16,10.923,0,15.083L256,301.248l22.635,22.635     C282.795,328.043,282.795,334.805,278.635,338.965z M399.296,338.965c-4.16,4.16-10.923,4.16-15.083,0l-22.635-22.635     l-15.083,15.083l22.635,22.635c4.16,4.16,4.16,10.923,0,15.083c-2.091,2.091-4.821,3.115-7.552,3.115     c-2.731,0-5.461-1.045-7.552-3.115l-22.635-22.635l-15.083,15.083l22.635,22.635c4.16,4.16,4.16,10.923,0,15.083     c-2.091,2.091-4.821,3.115-7.552,3.115c-2.731,0-5.461-1.045-7.552-3.115l-30.187-30.165c-2.005-2.005-3.115-4.715-3.115-7.552     c0-2.837,1.131-5.547,3.115-7.552l60.352-60.352c2.005-2.005,4.715-3.115,7.552-3.115c2.837,0,5.547,1.131,7.552,3.115     l30.165,30.187C403.477,328.043,403.477,334.805,399.296,338.965z" data-original="#000000" class="active-path" data-old_color="#FF000C" fill="#F23A46"/>
			<polygon points="219.947,235.029 224.896,226.752 216.619,231.723    " data-original="#000000" class="active-path" data-old_color="#FF000C" fill="#F23A46"/>
		</g>
	</g>
</g></g> </svg>
