<?xml version="1.0" encoding="iso-8859-1"?>
<!-- Generator: Adobe Illustrator 19.0.0, SVG Export Plug-In . SVG Version: 6.00 Build 0)  -->
<svg xmlns="http://www.w3.org/2000/svg" xmlns:xlink="http://www.w3.org/1999/xlink" version="1.1" id="Capa_1" x="0px" y="0px" viewBox="0 0 197.973 197.973" style="enable-background:new 0 0 197.973 197.973;" xml:space="preserve" width="512px" height="512px">
<g>
	<g>
		<path d="M175.787,0H96.399C81.828,0,69.973,11.854,69.973,26.426v11.121c0,0.93,0.125,1.852,0.374,2.739    c0.503,1.819,2.384,2.884,4.202,2.376c1.816-0.505,2.879-2.388,2.374-4.202c-0.082-0.294-0.123-0.601-0.123-0.913V26.426    c0-10.807,8.793-19.599,19.599-19.599h79.387c1.882,0,3.413,1.531,3.413,3.413s-1.531,3.413-3.413,3.413H96.399    c-7.043,0-12.773,5.729-12.773,12.773v11.121c0,0.319-0.043,0.631-0.126,0.93c-0.514,1.814,0.541,3.7,2.353,4.215    c0.311,0.087,0.625,0.13,0.932,0.13c1.488-0.002,2.857-0.981,3.282-2.485c0.256-0.906,0.386-1.843,0.386-2.79V26.426    c0-3.279,2.668-5.946,5.946-5.946h79.387c5.647,0,10.24-4.593,10.24-10.24C186.027,4.593,181.434,0,175.787,0z" fill="#65a2d9"/>
	</g>
</g>
<g>
	<g>
		<path d="M139.947,61.44H23.893c-6.588,0-11.947,5.361-11.947,11.947c0,6.586,5.359,11.947,11.947,11.947h116.053    c6.588,0,11.947-5.361,11.947-11.947C151.893,66.801,146.534,61.44,139.947,61.44z M139.947,78.507H23.893    c-2.823,0-5.12-2.297-5.12-5.12c0-2.823,2.297-5.12,5.12-5.12h116.053c2.823,0,5.12,2.297,5.12,5.12    C145.067,76.209,142.77,78.507,139.947,78.507z" fill="#65a2d9"/>
	</g>
</g>
<g>
	<g>
		<path d="M107.52,37.547h-51.2c-15.056,0-27.307,12.25-27.307,27.307c0,1.884,1.529,3.413,3.413,3.413h98.987    c1.884,0,3.413-1.529,3.413-3.413C134.827,49.797,122.576,37.547,107.52,37.547z M36.125,61.44    c1.63-9.673,10.064-17.067,20.197-17.067h51.2c10.129,0,18.565,7.393,20.195,17.067H36.125z" fill="#65a2d9"/>
	</g>
</g>
<g>
	<g>
		<path d="M42.667,92.16c-1.884,0-3.413,1.529-3.413,3.413v6.827c0,1.884,1.529,3.413,3.413,3.413s3.413-1.529,3.413-3.413v-6.827    C46.08,93.689,44.551,92.16,42.667,92.16z" fill="#65a2d9"/>
	</g>
</g>
<g>
	<g>
		<g>
			<path d="M42.667,159.937c-1.884,0-3.413,1.529-3.413,3.413v12.191c0,1.884,1.529,3.413,3.413,3.413s3.413-1.527,3.413-3.413     V163.35C46.08,161.466,44.551,159.937,42.667,159.937z" fill="#65a2d9"/>
			<path d="M42.667,135.557c-1.884,0-3.413,1.529-3.413,3.413v12.191c0,1.884,1.529,3.413,3.413,3.413s3.413-1.527,3.413-3.413     V138.97C46.08,137.086,44.551,135.557,42.667,135.557z" fill="#65a2d9"/>
			<path d="M42.667,111.176c-1.884,0-3.413,1.529-3.413,3.413v12.191c0,1.884,1.529,3.413,3.413,3.413s3.413-1.527,3.413-3.413     v-12.191C46.08,112.705,44.551,111.176,42.667,111.176z" fill="#65a2d9"/>
		</g>
	</g>
</g>
<g>
	<g>
		<path d="M42.667,184.32c-1.884,0-3.413,1.529-3.413,3.413v6.827c0,1.884,1.529,3.413,3.413,3.413s3.413-1.529,3.413-3.413v-6.827    C46.08,185.849,44.551,184.32,42.667,184.32z" fill="#65a2d9"/>
	</g>
</g>
<g>
	<g>
		<path d="M66.56,92.16c-1.884,0-3.413,1.529-3.413,3.413v6.827c0,1.884,1.529,3.413,3.413,3.413c1.884,0,3.413-1.529,3.413-3.413    v-6.827C69.973,93.689,68.444,92.16,66.56,92.16z" fill="#65a2d9"/>
	</g>
</g>
<g>
	<g>
		<g>
			<path d="M66.56,159.937c-1.884,0-3.413,1.529-3.413,3.413v12.191c0,1.884,1.529,3.413,3.413,3.413     c1.884,0,3.413-1.527,3.413-3.413V163.35C69.973,161.466,68.444,159.937,66.56,159.937z" fill="#65a2d9"/>
			<path d="M66.56,135.557c-1.884,0-3.413,1.529-3.413,3.413v12.191c0,1.884,1.529,3.413,3.413,3.413     c1.884,0,3.413-1.527,3.413-3.413V138.97C69.973,137.086,68.444,135.557,66.56,135.557z" fill="#65a2d9"/>
			<path d="M66.56,111.176c-1.884,0-3.413,1.529-3.413,3.413v12.191c0,1.884,1.529,3.413,3.413,3.413     c1.884,0,3.413-1.527,3.413-3.413v-12.191C69.973,112.705,68.444,111.176,66.56,111.176z" fill="#65a2d9"/>
		</g>
	</g>
</g>
<g>
	<g>
		<path d="M66.56,184.32c-1.884,0-3.413,1.529-3.413,3.413v6.827c0,1.884,1.529,3.413,3.413,3.413c1.884,0,3.413-1.529,3.413-3.413    v-6.827C69.973,185.849,68.444,184.32,66.56,184.32z" fill="#65a2d9"/>
	</g>
</g>
<g>
	<g>
		<path d="M90.453,92.16c-1.884,0-3.413,1.529-3.413,3.413v6.827c0,1.884,1.529,3.413,3.413,3.413s3.413-1.529,3.413-3.413v-6.827    C93.867,93.689,92.338,92.16,90.453,92.16z" fill="#65a2d9"/>
	</g>
</g>
<g>
	<g>
		<g>
			<path d="M90.453,135.557c-1.884,0-3.413,1.529-3.413,3.413v12.191c0,1.884,1.529,3.413,3.413,3.413s3.413-1.527,3.413-3.413     V138.97C93.867,137.086,92.338,135.557,90.453,135.557z" fill="#65a2d9"/>
			<path d="M90.453,159.937c-1.884,0-3.413,1.529-3.413,3.413v12.191c0,1.884,1.529,3.413,3.413,3.413s3.413-1.527,3.413-3.413     V163.35C93.867,161.466,92.338,159.937,90.453,159.937z" fill="#65a2d9"/>
			<path d="M90.453,111.176c-1.884,0-3.413,1.529-3.413,3.413v12.191c0,1.884,1.529,3.413,3.413,3.413s3.413-1.527,3.413-3.413     v-12.191C93.867,112.705,92.338,111.176,90.453,111.176z" fill="#65a2d9"/>
		</g>
	</g>
</g>
<g>
	<g>
		<path d="M90.453,184.32c-1.884,0-3.413,1.529-3.413,3.413v6.827c0,1.884,1.529,3.413,3.413,3.413s3.413-1.529,3.413-3.413v-6.827    C93.867,185.849,92.338,184.32,90.453,184.32z" fill="#65a2d9"/>
	</g>
</g>
<g>
	<g>
		<path d="M114.347,92.16c-1.884,0-3.413,1.529-3.413,3.413v6.827c0,1.884,1.529,3.413,3.413,3.413c1.884,0,3.413-1.529,3.413-3.413    v-6.827C117.76,93.689,116.231,92.16,114.347,92.16z" fill="#65a2d9"/>
	</g>
</g>
<g>
	<g>
		<g>
			<path d="M114.347,159.937c-1.884,0-3.413,1.529-3.413,3.413v12.191c0,1.884,1.529,3.413,3.413,3.413     c1.884,0,3.413-1.527,3.413-3.413V163.35C117.76,161.466,116.231,159.937,114.347,159.937z" fill="#65a2d9"/>
			<path d="M114.347,135.557c-1.884,0-3.413,1.529-3.413,3.413v12.191c0,1.884,1.529,3.413,3.413,3.413     c1.884,0,3.413-1.527,3.413-3.413V138.97C117.76,137.086,116.231,135.557,114.347,135.557z" fill="#65a2d9"/>
			<path d="M114.347,111.176c-1.884,0-3.413,1.529-3.413,3.413v12.191c0,1.884,1.529,3.413,3.413,3.413     c1.884,0,3.413-1.527,3.413-3.413v-12.191C117.76,112.705,116.231,111.176,114.347,111.176z" fill="#65a2d9"/>
		</g>
	</g>
</g>
<g>
	<g>
		<path d="M114.347,184.32c-1.884,0-3.413,1.529-3.413,3.413v6.827c0,1.884,1.529,3.413,3.413,3.413    c1.884,0,3.413-1.529,3.413-3.413v-6.827C117.76,185.849,116.231,184.32,114.347,184.32z" fill="#65a2d9"/>
	</g>
</g>
<g>
</g>
<g>
</g>
<g>
</g>
<g>
</g>
<g>
</g>
<g>
</g>
<g>
</g>
<g>
</g>
<g>
</g>
<g>
</g>
<g>
</g>
<g>
</g>
<g>
</g>
<g>
</g>
<g>
</g>
</svg>
