<?xml version="1.0" encoding="iso-8859-1"?>
<!-- Generator: Adobe Illustrator 18.0.0, SVG Export Plug-In . SVG Version: 6.00 Build 0)  -->
<!DOCTYPE svg PUBLIC "-//W3C//DTD SVG 1.1//EN" "http://www.w3.org/Graphics/SVG/1.1/DTD/svg11.dtd">
<svg version="1.1" id="Capa_1" xmlns="http://www.w3.org/2000/svg" xmlns:xlink="http://www.w3.org/1999/xlink" x="0px" y="0px"
	 viewBox="0 0 489.317 489.317" style="enable-background:new 0 0 489.317 489.317;" xml:space="preserve">
<g>
	<path d="M75.164,356.26c-22.916,0-41.56,18.644-41.56,41.561c0,22.916,18.644,41.56,41.56,41.56s41.56-18.644,41.56-41.56
		C116.724,374.904,98.08,356.26,75.164,356.26z M75.164,430.881c-18.229,0-33.06-14.831-33.06-33.06
		c0-18.23,14.831-33.061,33.06-33.061s33.06,14.831,33.06,33.061C108.224,416.05,93.393,430.881,75.164,430.881z"/>
	<path d="M75.164,374.926c-12.624,0-22.894,10.27-22.894,22.895c0,2.347,1.903,4.25,4.25,4.25c2.347,0,4.25-1.903,4.25-4.25
		c0-7.937,6.457-14.395,14.394-14.395c2.347,0,4.25-1.903,4.25-4.25C79.414,376.829,77.511,374.926,75.164,374.926z"/>
	<path d="M417.207,201.564c-14.237-14.238-30.419-24.68-47.931-31.072c7.148-22.207,8.578-45.221,4.109-66.829
		c-5.054-24.441-17.145-46.361-35.935-65.153C312.257,13.317,280.982,0,247.009,0c-38.306,0-76.269,16.867-106.896,47.494
		c-27.955,27.955-42.73,60.521-42.73,94.178c0,14.797,2.858,29.382,8.434,43.458c3.868,11.633,11.781,43.29-8.821,61.868
		l-34.288,25.348c-0.17,0.126-0.33,0.263-0.479,0.413c-9.469,9.47-8.919,25.428,1.225,35.573l9.934,9.933
		c4.868,4.869,11.212,7.701,17.864,7.977c0.358,0.015,0.713,0.022,1.068,0.022c6.374,0,12.25-2.383,16.641-6.773
		c0.149-0.149,0.287-0.309,0.412-0.479l25.468-34.45c0.083-0.112,0.159-0.227,0.229-0.344
		c12.658-15.555,32.093-16.911,47.586-14.742c-3.648,11.508-5.517,23.309-5.517,35.249c0,14.797,2.858,29.382,8.434,43.458
		c3.868,11.633,11.781,43.29-8.821,61.868L142.464,435.4c-0.17,0.125-0.33,0.263-0.479,0.412c-9.47,9.47-8.92,25.428,1.226,35.574
		l9.933,9.932c4.868,4.869,11.212,7.701,17.865,7.977c0.357,0.015,0.714,0.022,1.068,0.022c6.375,0,12.25-2.383,16.64-6.774
		c0.149-0.149,0.287-0.309,0.412-0.479l25.468-34.45c0.081-0.109,0.155-0.22,0.224-0.334c18.307-22.403,53.073-14.353,62.576-11.614
		c11.95,3.947,24.226,5.967,36.65,5.967c33.657,0,66.224-14.776,94.178-42.732c28.112-28.112,44.88-63.054,47.214-98.389
		C457.863,263.784,444.286,228.643,417.207,201.564z M146.123,53.505C175.145,24.483,210.973,8.5,247.009,8.5
		c31.67,0,60.866,12.456,84.432,36.021c33.569,33.57,44.304,78.324,29.761,123.341c-11.055-3.183-22.58-4.81-34.436-4.81
		c-38.044,0-75.746,16.645-106.264,46.876l-44.866-44.866c-1.66-1.659-4.351-1.659-6.011,0c-1.66,1.66-1.66,4.351,0,6.011
		l44.974,44.973c-0.001,0.001-0.001,0.001-0.002,0.002c-0.29,0.316-0.573,0.636-0.861,0.953c-0.56,0.618-1.119,1.236-1.666,1.857
		c-0.278,0.316-0.549,0.634-0.823,0.951c-0.551,0.636-1.101,1.272-1.639,1.912c-0.245,0.291-0.485,0.584-0.728,0.876
		c-0.563,0.679-1.123,1.36-1.672,2.045c-0.2,0.248-0.396,0.498-0.594,0.748c-0.591,0.745-1.175,1.492-1.749,2.242
		c-0.145,0.189-0.288,0.379-0.432,0.568c-0.042,0.055-0.083,0.109-0.124,0.164l-97.767-97.768
		C109.374,103.648,122.566,77.062,146.123,53.505z M112.456,178.456c-4.29-11.972-6.456-24.193-6.499-36.417l93.338,93.338
		c-5.14,7.651-9.407,15.532-12.782,23.587c-14.268-6.788-27.837-16.57-40.393-29.125c-15.187-15.187-26.063-31.634-32.637-48.625
		C113.074,180.053,112.72,179.123,112.456,178.456z M127.626,279.927c-0.163,0.211-0.302,0.433-0.419,0.662l-24.47,33.099
		c-2.915,2.798-6.851,4.248-11.134,4.062c-4.515-0.187-8.85-2.139-12.206-5.495l-9.934-9.933
		c-6.753-6.753-7.367-17.156-1.433-23.341l34.179-25.267c0.105-0.078,0.207-0.161,0.305-0.248
		c13.681-12.22,17.082-28.599,16.632-43.041c5.854,8.805,12.851,17.311,20.965,25.425c9.69,9.689,19.981,17.816,30.737,24.308
		C155.659,260.265,139.286,264.79,127.626,279.927z M282.718,428.429c-0.007-0.002-0.012-0.006-0.018-0.009
		c-0.275-0.098-1.391-0.486-3.164-1.005c-18.981-6.374-37.139-18.004-53.657-34.523c-14.688-14.687-25.507-30.671-32.207-47.377
		c-0.956-2.833-1.712-4.647-1.905-5.099c-4.018-11.548-6.091-23.408-6.124-35.398L313.753,433.13
		C303.268,433.101,292.884,431.513,282.718,428.429z M207.383,442.98c-0.162,0.21-0.301,0.431-0.418,0.66l-24.471,33.102
		c-2.915,2.798-6.863,4.241-11.134,4.061c-4.516-0.187-8.851-2.138-12.206-5.495l-9.933-9.933
		c-6.754-6.753-7.368-17.157-1.433-23.341l34.179-25.267c0.105-0.078,0.207-0.161,0.305-0.248
		c13.681-12.22,17.082-28.599,16.632-43.042c5.855,8.806,12.85,17.311,20.965,25.426c9.806,9.806,20.18,17.983,30.969,24.477
		C235.969,423.586,219.037,427.852,207.383,442.98z M446.956,299.954c-2.198,33.278-18.088,66.284-44.742,92.938
		c-23.197,23.197-49.626,36.752-77.03,39.648L186.232,293.587c0.975-9.224,3.16-18.336,6.512-27.253
		c0.021-0.05,0.053-0.094,0.072-0.145c3.331-8.821,7.773-17.401,13.288-25.684c0.01-0.015,0.02-0.03,0.03-0.045
		c0.71-1.065,1.439-2.125,2.184-3.18c0.02-0.029,0.042-0.056,0.061-0.085c1.375-1.943,2.808-3.869,4.301-5.776
		c0.163-0.208,0.331-0.414,0.495-0.622c0.577-0.729,1.16-1.455,1.754-2.178c0.258-0.314,0.52-0.626,0.781-0.939
		c0.517-0.62,1.04-1.238,1.57-1.854c0.297-0.345,0.597-0.691,0.898-1.035c0.52-0.594,1.046-1.185,1.578-1.774
		c0.306-0.34,0.611-0.681,0.922-1.02c0.574-0.627,1.159-1.25,1.747-1.873c0.272-0.289,0.54-0.578,0.815-0.866
		c0.867-0.905,1.745-1.806,2.641-2.702c29.017-29.017,64.841-44.997,100.873-44.997c12.27,0,24.322,1.9,35.819,5.648
		c0.064,0.02,0.128,0.024,0.191,0.042c17.748,5.816,34.13,16.019,48.434,30.324C436.885,233.263,449.251,265.207,446.956,299.954z"
		/>
	<path d="M255.39,328.116c-1.658-1.659-4.352-1.659-6.01,0c-1.66,1.66-1.66,4.351,0,6.011l86.235,86.234
		c0.829,0.83,1.917,1.245,3.005,1.245c1.088,0,2.176-0.415,3.005-1.245c1.66-1.66,1.66-4.351,0-6.011L255.39,328.116z"/>
</g>
<g>
</g>
<g>
</g>
<g>
</g>
<g>
</g>
<g>
</g>
<g>
</g>
<g>
</g>
<g>
</g>
<g>
</g>
<g>
</g>
<g>
</g>
<g>
</g>
<g>
</g>
<g>
</g>
<g>
</g>
</svg>
