<?xml version="1.0"?>
<svg xmlns="http://www.w3.org/2000/svg" xmlns:xlink="http://www.w3.org/1999/xlink" version="1.1" id="Capa_1" x="0px" y="0px" viewBox="0 0 187.855 187.855" style="enable-background:new 0 0 187.855 187.855;" xml:space="preserve" width="512px" height="512px" class=""><g><path style="fill:#00FFDB" d="M184.381,66.621H3.474l23.893-29.865L3.474,5.181h167.994c7.13,0,12.913,5.78,12.913,12.913  L184.381,66.621L184.381,66.621z" data-original="#2ABBE9" class="active-path" data-old_color="#FF3800"/><path d="M184.381,70.034H3.474c-1.312,0-2.509-0.751-3.077-1.935c-0.568-1.181-0.408-2.587,0.411-3.61l22.233-27.791L0.75,7.241  C-0.032,6.208-0.161,4.82,0.416,3.66s1.763-1.893,3.058-1.893H171.47c9.001,0,16.324,7.323,16.324,16.324v48.529  C187.794,68.505,186.265,70.034,184.381,70.034z M10.575,63.207h170.392V18.092c0-5.236-4.262-9.498-9.498-9.498H10.338  l19.751,26.102c0.944,1.246,0.92,2.973-0.056,4.192L10.575,63.207z" data-original="#000000" class="" style="fill:#000000"/><path d="M52.45,18.581h10.467c4.857,0,8.366,0.71,10.527,2.123c2.164,1.417,3.246,3.651,3.246,6.704c0,2.06-0.532,3.773-1.594,5.137  c-1.06,1.367-2.591,2.231-4.584,2.584v0.241c2.476,0.466,4.297,1.386,5.463,2.76c1.167,1.377,1.749,3.236,1.749,5.583  c0,3.169-1.106,5.651-3.316,7.439c-2.21,1.794-5.287,2.69-9.226,2.69H52.448v-35.26H52.45z M58.217,33.148h5.547  c2.41,0,4.169-0.381,5.28-1.143c1.111-0.763,1.664-2.063,1.664-3.896c0-1.657-0.597-2.854-1.797-3.593  c-1.196-0.741-3.096-1.109-5.704-1.109h-4.99L58.217,33.148L58.217,33.148z M58.217,37.827v11.167h6.124  c2.413,0,4.233-0.463,5.463-1.386c1.23-0.927,1.843-2.383,1.843-4.376c0-1.833-0.626-3.193-1.881-4.077  c-1.254-0.884-3.161-1.326-5.717-1.326h-5.832V37.827z" data-original="#000000" class="" style="fill:#000000"/><path d="M105.004,53.841H85.056v-35.26h19.948v4.873H90.823v9.597h13.286v4.823H90.823v11.069h14.181V53.841z" data-original="#000000" class="" style="fill:#000000"/><path d="M132.95,44.267c0,3.133-1.133,5.593-3.4,7.38c-2.266,1.783-5.393,2.676-9.38,2.676s-7.25-0.62-9.789-1.857v-5.453  c1.606,0.756,3.313,1.353,5.123,1.787c1.811,0.433,3.494,0.65,5.053,0.65c2.284,0,3.966-0.433,5.05-1.3  c1.087-0.87,1.63-2.036,1.63-3.5c0-1.316-0.5-2.434-1.497-3.35c-0.997-0.916-3.053-2.004-6.173-3.256  c-3.217-1.304-5.484-2.79-6.799-4.46c-1.319-1.673-1.98-3.683-1.98-6.03c0-2.944,1.046-5.257,3.137-6.946  c2.091-1.686,4.896-2.533,8.417-2.533c3.378,0,6.736,0.741,10.08,2.22l-1.833,4.704c-3.133-1.319-5.931-1.976-8.39-1.976  c-1.867,0-3.28,0.406-4.246,1.217c-0.963,0.814-1.447,1.886-1.447,3.22c0,0.916,0.193,1.7,0.58,2.35  c0.387,0.654,1.021,1.266,1.903,1.847c0.887,0.577,2.476,1.343,4.777,2.29c2.587,1.077,4.487,2.084,5.69,3.014  c1.207,0.934,2.091,1.987,2.654,3.161C132.674,41.295,132.95,42.674,132.95,44.267z" data-original="#000000" class="" style="fill:#000000"/><path d="M151.957,53.841h-5.763V23.527h-10.37v-4.946h26.503v4.946h-10.37V53.841z" data-original="#000000" class="" style="fill:#000000"/><path style="fill:#00FFDB" d="M16.387,182.674h167.994l-23.893-29.865l23.893-31.575H3.474v48.527  C3.474,176.893,9.254,182.674,16.387,182.674z" data-original="#2ABBE9" class="active-path" data-old_color="#FF3800"/><path d="M184.381,186.087H16.385c-9.001,0-16.324-7.323-16.324-16.324v-48.529c0-1.884,1.529-3.413,3.413-3.413h180.907  c1.295,0,2.48,0.734,3.057,1.893c0.577,1.159,0.447,2.546-0.335,3.581l-22.291,29.457l22.233,27.791  c0.819,1.024,0.98,2.429,0.411,3.61C186.889,185.336,185.693,186.087,184.381,186.087z M6.887,124.647v45.116  c0,5.236,4.262,9.498,9.498,9.498h160.893l-19.456-24.32c-0.976-1.219-1-2.946-0.056-4.192l19.753-26.102H6.887z" data-original="#000000" class="" style="fill:#000000"/><path d="M51.667,152.701c0,4.943-1.237,8.783-3.71,11.527c-2.47,2.739-5.97,4.113-10.496,4.113c-4.588,0-8.107-1.364-10.563-4.084  s-3.686-6.586-3.686-11.6s1.237-8.859,3.707-11.547c2.473-2.686,6.001-4.029,10.583-4.029c4.514,0,8.003,1.364,10.467,4.089  C50.435,143.9,51.667,147.74,51.667,152.701z M28.487,152.701c0,3.736,0.753,6.574,2.263,8.503c1.51,1.934,3.746,2.896,6.711,2.896  c2.947,0,5.173-0.954,6.676-2.864c1.504-1.913,2.253-4.756,2.253-8.537c0-3.727-0.744-6.55-2.234-8.477  c-1.49-1.923-3.707-2.886-6.656-2.886c-2.976,0-5.224,0.963-6.74,2.886C29.245,146.151,28.487,148.974,28.487,152.701z" data-original="#000000" class="" style="fill:#000000"/><path d="M63.11,167.923h-4.92v-30.367h17.135v4.197H63.112v9.491h11.447v4.217H63.112v12.462H63.11z" data-original="#000000" class="" style="fill:#000000"/><path d="M85.751,167.923h-4.92v-30.367h17.133v4.197H85.751v9.491h11.447v4.217H85.751V167.923z" data-original="#000000" class="" style="fill:#000000"/><path d="M120.643,167.923h-17.176v-30.367h17.176v4.197h-12.213v8.267h11.443v4.154h-11.443v9.533h12.213L120.643,167.923  L120.643,167.923z" data-original="#000000" class="" style="fill:#000000"/><path d="M132.174,155.794v12.129h-4.963v-30.367h8.576c3.92,0,6.82,0.734,8.704,2.203c1.884,1.466,2.823,3.683,2.823,6.647  c0,3.78-1.966,6.473-5.897,8.076l8.576,13.44h-5.651l-7.27-12.129H132.174z M132.174,151.681h3.447c2.313,0,3.99-0.427,5.026-1.287  c1.039-0.86,1.56-2.133,1.56-3.823c0-1.717-0.563-2.947-1.683-3.697c-1.123-0.748-2.813-1.12-5.07-1.12h-3.28L132.174,151.681  L132.174,151.681z" data-original="#000000" class="" style="fill:#000000"/><polygon style="fill:#2A8EE6" points="184.381,66.621 99.047,66.621 3.474,121.234 88.807,121.234 " data-original="#2A8EE6" class=""/><path d="M88.807,124.707H3.474c-1.575,0-2.953-1.06-3.357-2.582c-0.404-1.522,0.265-3.127,1.633-3.908l95.573-54.613  c0.526-0.3,1.118-0.457,1.724-0.457h85.333c1.575,0,2.953,1.06,3.357,2.582c0.404,1.522-0.265,3.127-1.633,3.908L90.531,124.25  C90.005,124.55,89.411,124.707,88.807,124.707z M16.554,117.761h71.332l83.415-47.667H99.969L16.554,117.761z" data-original="#000000" class="" style="fill:#000000"/></g> </svg>
